<svg xmlns="http://www.w3.org/2000/svg" data-name="Layer 1" viewBox="0 0 95 118.75" x="0px" y="0px"><path d="M94,20.629V28.2a2.044,2.044,0,0,1-2.038,2.038h-6v6a2.044,2.044,0,0,1-2.038,2.038H76.348a2.044,2.044,0,0,1-2.038-2.038v-6h-6A2.044,2.044,0,0,1,66.269,28.2V20.629a2.044,2.044,0,0,1,2.038-2.038h6v-6a2.044,2.044,0,0,1,2.038-2.038h7.573a2.044,2.044,0,0,1,2.038,2.038v6h6A2.044,2.044,0,0,1,94,20.629ZM18.087,48.141l5.735-23.184a3.3,3.3,0,0,1,3.206-2.514H27.1a3.29,3.29,0,0,1,3.172,2.61l5.4,24.986L39.7,37.116A3.293,3.293,0,0,1,42.861,34.8h.111a3.318,3.318,0,0,1,3.107,2.543l2.9,12.235h10.1l6.475-9.235a5.29,5.29,0,0,1,8.664,0L84.2,54.564a27.737,27.737,0,0,0,2.122-2.82,29,29,0,0,0,4.862-15.928,24.643,24.643,0,0,0-.272-3.371H88.164v3.8a4.248,4.248,0,0,1-4.243,4.244H76.348a4.248,4.248,0,0,1-4.243-4.244v-3.8h-3.8A4.248,4.248,0,0,1,64.063,28.2V20.629a4.248,4.248,0,0,1,4.244-4.243h3.8V13.738a23.576,23.576,0,0,0-10.749.791,19.4,19.4,0,0,0-9.365,6.277A18.391,18.391,0,0,0,48.9,26.47a18.415,18.415,0,0,0-3.089-5.664,19.4,19.4,0,0,0-9.365-6.277c-9.2-2.915-19.578.206-25.227,7.586a22.749,22.749,0,0,0-4.6,13.7A27.865,27.865,0,0,0,9.475,48.141Zm3.661,3.573,5.213-21.076L34,63.233a1.1,1.1,0,0,0,1.028.869h.051a1.1,1.1,0,0,0,1.052-.774l6.585-21.065L45.3,53.137a1.1,1.1,0,0,0,1.073.848h9.624l1.546-2.206H47.24L43.933,37.848a1.1,1.1,0,0,0-2.125-.074L35.272,58.68,28.111,25.518a1.1,1.1,0,0,0-2.148-.032l-6.149,24.86H2.1a1.1,1.1,0,0,0,0,2.206H20.677A1.1,1.1,0,0,0,21.748,51.714ZM45.9,73.342a5.21,5.21,0,0,1,.362-5.479L54.446,56.19H46.369a3.3,3.3,0,0,1-3.219-2.544l-.726-3.059-4.189,13.4a3.294,3.294,0,0,1-3.157,2.321l-.157,0A3.311,3.311,0,0,1,31.843,63.7L26.815,40.412,23.889,52.243a3.3,3.3,0,0,1-3.212,2.514h-6.9c5.914,6.917,17.65,16.15,26.54,23.144,3.123,2.457,5.821,4.579,7.886,6.3a1.1,1.1,0,0,0,1.409,0c2.066-1.716,4.763-3.838,7.886-6.3l2.172-1.709H50.593A5.207,5.207,0,0,1,45.9,73.342Zm45.819-4.213a3.086,3.086,0,0,1-2.525,4.857h-38.6a3.086,3.086,0,0,1-2.526-4.857l19.3-27.524a3.085,3.085,0,0,1,5.052,0Zm-18.68-1.993a3.145,3.145,0,1,0-3.145,3.145A3.149,3.149,0,0,0,73.038,67.136Zm-.046-19.15a1.1,1.1,0,0,0-.81-.354H67.6a1.1,1.1,0,0,0-1.1,1.189L67.537,61.9a1.1,1.1,0,0,0,1.1,1.016H71.15a1.1,1.1,0,0,0,1.1-1.016l1.033-13.082A1.1,1.1,0,0,0,72.992,47.986ZM69.655,60.713h.476l.858-10.876H68.8Zm.238,5.484a.939.939,0,1,0,.939.939A.94.94,0,0,0,69.893,66.2Z"/><text x="0" y="110" fill="#000000" font-size="5px" font-weight="bold" font-family="'Helvetica Neue', Helvetica, Arial-Unicode, Arial, Sans-serif">Created by Sunardi</text><text x="0" y="115" fill="#000000" font-size="5px" font-weight="bold" font-family="'Helvetica Neue', Helvetica, Arial-Unicode, Arial, Sans-serif">from the Noun Project</text></svg>